<!--?xml version="1.0" encoding="utf-8"?-->
<!-- Generator: Adobe Illustrator 18.0.0, SVG Export Plug-In . SVG Version: 6.00 Build 0)  -->

<svg version="1.1" id="_x31_0" xmlns="http://www.w3.org/2000/svg" xmlns:xlink="http://www.w3.org/1999/xlink" x="0px" y="0px" viewBox="0 0 512 512" style="width: 256px; height: 256px; opacity: 1;" xml:space="preserve">
<style type="text/css">
	.st0{fill:#374149;}
</style>
<g>
	<path class="st0" d="M484.16,139.762c-5.762-11.359-12.398-22.242-19.762-32.562C447.84,84.16,427.68,64,404.641,47.519
		c-10.321-7.359-21.199-14-32.562-19.758C337.282,10,297.762,0,256,0C114.641,0,0,114.641,0,256c0,141.442,114.641,256,256,256
		s256-114.558,256-256C512,214.16,502,174.641,484.16,139.762z M345.805,425.43c-22.114,11.809-46.656,19.554-72.695,21.824
		c-3.493,0.301-6.965,0.497-10.422,0.614c-0.304,0.008-0.605,0.031-0.91,0.039c-113.75,3.355-206.442-92.797-197.133-207.821
		c2.332-28.777,11.168-55.874,25.027-79.789c16.691-28.652,40.602-52.793,69.086-69.746c23.766-14.078,50.762-23.167,79.504-25.754
		c3.817-0.344,7.614-0.55,11.387-0.672c0.347-0.011,0.691-0.039,1.038-0.046c24.012-0.653,47.082,3.125,68.493,10.594
		c0.171,0.062,0.343,0.117,0.515,0.179c2.313,0.813,4.574,1.734,6.848,2.633c1.195,0.485,2.398,0.922,3.586,1.43l-21.691,26.449
		c-7.554,9.215-6.887,22.656,1.546,31.074l65.516,65.406c8.414,8.402,21.824,9.062,31.027,1.531l20.774-17l5.754-4.653
		c11.77,27.832,17.031,58.981,14.192,91.57c-2.227,25.535-9.738,49.622-21.184,71.383
		C407.981,378.844,379.867,407.121,345.805,425.43z M385.359,164.082l-37.598-37.602l21.118-25.68
		c16.16,11.758,30.402,26,42.242,42.16L385.359,164.082z" style="fill: rgb(75, 75, 75);"></path>
	<path class="st0" d="M289.578,147.289l-0.149-0.148l0,0c-0.039-0.039-0.074-0.078-0.113-0.114
		c-42.364,42.328-89.786,67.637-126.161,81.906c-2.73,52.473-17.054,102.934-26.515,131.246c-3.328-0.481-6.832,0.55-9.398,3.109
		c-4.07,4.066-4.164,10.438-0.57,14.786c0.176,0.234,0.266,0.531,0.457,0.746l0.023-0.019c0.039,0.039,0.051,0.094,0.09,0.137
		l15.656-15.649c-0.145-0.14-0.293-0.262-0.442-0.394L217,285.004c-4.934-9.129-3.543-20.75,4.176-28.465
		c9.41-9.402,24.656-9.402,34.066,0c9.41,9.402,9.41,24.644,0,34.05c-6.653,6.645-16.195,8.566-24.555,5.825
		c-0.679-0.234-1.328-0.504-1.972-0.798c-0.653-0.281-1.321-0.519-1.954-0.859l-46.207,44.164l-42.93,40.829l0.226-0.012
		l-0.171,0.164c0.16-0.062,0.332-0.121,0.503-0.184l0.266-0.015l-5.102,5.098l-0.004,0.004l0,0l-0.114,0.113
		c4.32,4.321,11.332,4.321,15.653,0c2.714-2.71,3.718-6.476,3.027-9.976c28.402-9.45,78.675-23.657,130.957-26.375
		c14.278-36.351,39.602-83.742,81.961-126.078c-18.422-18.402-37.758-37.73-37.758-37.73S307.918,165.617,289.578,147.289z" style="fill: rgb(75, 75, 75);"></path>
</g>
</svg>
